<?xml version="1.0" encoding="utf-8"?>
<svg xmlns="http://www.w3.org/2000/svg" fill="none" height="48" viewBox="0 0 196 48" width="196">
<g clip-path="url(#clip0_18613_41139)">
<path d="M188.476 16.127H191.061C191.153 16.127 191.21 16.1442 191.239 16.1844C191.268 16.2246 191.285 16.2821 191.285 16.3567V16.6152C191.285 16.6957 191.268 16.7589 191.239 16.7876C191.21 16.8163 191.153 16.8335 191.061 16.8335H190.165V19.6312C190.165 19.7346 190.148 19.7978 190.113 19.8265C190.079 19.8552 190.004 19.8725 189.895 19.8725H189.625C189.516 19.8725 189.441 19.8552 189.407 19.8265C189.372 19.792 189.355 19.7288 189.355 19.6369V16.8508H188.47C188.378 16.8508 188.321 16.8335 188.292 16.7991C188.263 16.7646 188.246 16.7014 188.246 16.621V16.3625C188.246 16.2878 188.258 16.2304 188.292 16.1901C188.321 16.1499 188.378 16.1327 188.47 16.1327L188.476 16.127ZM192.072 16.127H192.313C192.422 16.127 192.497 16.1384 192.543 16.1729C192.589 16.2016 192.635 16.2648 192.675 16.3625L193.434 17.9652L194.203 16.3625C194.255 16.2648 194.301 16.2016 194.341 16.1729C194.381 16.1442 194.456 16.127 194.565 16.127H194.806C194.916 16.127 194.99 16.1384 195.025 16.1729C195.059 16.2016 195.076 16.2591 195.076 16.351V19.6369C195.076 19.7403 195.059 19.8035 195.025 19.8323C194.99 19.861 194.916 19.8782 194.806 19.8782H194.577C194.468 19.8782 194.393 19.861 194.358 19.8323C194.324 19.8035 194.307 19.7346 194.307 19.6427V17.7125L193.836 18.6431C193.795 18.7178 193.761 18.7752 193.732 18.804C193.704 18.8327 193.64 18.8499 193.543 18.8499H193.313C193.215 18.8499 193.152 18.8384 193.123 18.8097C193.095 18.7867 193.06 18.7293 193.02 18.6489L192.56 17.7182V19.6484C192.56 19.7518 192.543 19.815 192.509 19.8437C192.474 19.8725 192.399 19.8897 192.29 19.8897H192.061C191.951 19.8897 191.877 19.8725 191.842 19.8437C191.808 19.815 191.791 19.7461 191.791 19.6542V16.3855C191.791 16.2878 191.808 16.2246 191.842 16.1959C191.877 16.1614 191.951 16.1499 192.061 16.1499L192.072 16.127Z" fill="#121212"/>
<path d="M49.7724 19.6825H46.3256C46.0039 19.6825 45.7914 19.6193 45.6822 19.4987C45.5731 19.3781 45.5156 19.1138 45.5156 18.7232V17.4594C45.5156 17.0687 45.5731 16.8102 45.6822 16.6838C45.7914 16.5574 46.0039 16.5 46.3256 16.5H56.8039C57.137 16.5 57.3553 16.5632 57.4587 16.6838C57.5622 16.8045 57.6139 17.0687 57.6139 17.4594V18.7232C57.6139 19.1138 57.5622 19.3723 57.4587 19.4987C57.3553 19.6251 57.137 19.6825 56.8039 19.6825H53.3571V31.2063C53.3571 31.5395 53.2939 31.7635 53.1732 31.8727C53.0469 31.9818 52.7998 32.0393 52.4207 32.0393H50.7203C50.3411 32.0393 50.0884 31.9876 49.9677 31.8727C49.8413 31.7635 49.7839 31.5395 49.7839 31.2063V19.6825H49.7724Z" fill="#121212"/>
<path d="M72.3668 31.2119C72.3668 31.5451 72.3037 31.7692 72.183 31.8783C72.0566 31.9875 71.8096 32.0449 71.4305 32.0449H69.73C69.3509 32.0449 69.0981 31.9932 68.9775 31.8783C68.8511 31.7692 68.7937 31.5451 68.7937 31.2119V25.5362H63.9911V31.2119C63.9911 31.5451 63.928 31.7692 63.8073 31.8783C63.6809 31.9875 63.4339 32.0449 63.0548 32.0449H61.3543C60.9752 32.0449 60.7224 31.9932 60.6018 31.8783C60.4754 31.7692 60.418 31.5451 60.418 31.2119V17.3271C60.418 16.9939 60.4812 16.7699 60.6018 16.6607C60.7224 16.5516 60.9752 16.4941 61.3543 16.4941H63.0548C63.4339 16.4941 63.6867 16.5458 63.8073 16.6607C63.928 16.7699 63.9911 16.9939 63.9911 17.3271V22.4341H68.7937V17.3271C68.7937 16.9939 68.8569 16.7699 68.9775 16.6607C69.0981 16.5516 69.3509 16.4941 69.73 16.4941H71.4305C71.8096 16.4941 72.0624 16.5458 72.183 16.6607C72.3037 16.7699 72.3668 16.9939 72.3668 17.3271V31.2119Z" fill="#121212"/>
<path d="M86.1434 31.0816C86.1434 31.4723 86.0917 31.7308 85.9883 31.8572C85.8849 31.9836 85.6666 32.041 85.3334 32.041H77.1473C76.7682 32.041 76.5154 31.9893 76.3948 31.8744C76.2684 31.7653 76.2109 31.5412 76.2109 31.208V17.3232C76.2109 16.99 76.2741 16.766 76.3948 16.6568C76.5154 16.5477 76.7682 16.4902 77.1473 16.4902H85.2473C85.5805 16.4902 85.7988 16.5534 85.9022 16.6741C86.0056 16.7947 86.0573 17.059 86.0573 17.4496V18.6732C86.0573 19.0638 86.0056 19.3223 85.9022 19.4487C85.7988 19.5751 85.5805 19.6326 85.2473 19.6326H79.7899V22.5164H84.6785C85.0117 22.5164 85.23 22.5796 85.3334 22.7002C85.4368 22.8266 85.4885 23.0851 85.4885 23.4757V24.6132C85.4885 25.0038 85.4368 25.2623 85.3334 25.3887C85.23 25.5093 85.0117 25.5725 84.6785 25.5725H79.7899V28.8929H85.3334C85.6666 28.8929 85.8849 28.9561 85.9883 29.0768C86.0917 29.1974 86.1434 29.4617 86.1434 29.8523V31.0759V31.0816Z" fill="#121212"/>
<path d="M98.1462 26.9742V31.208C98.1462 31.5412 98.0831 31.7653 97.9624 31.8744C97.836 31.9836 97.589 32.041 97.2099 32.041H95.5497C95.1705 32.041 94.9178 31.9893 94.7971 31.8744C94.6707 31.7653 94.6133 31.5412 94.6133 31.208V17.3232C94.6133 16.99 94.6765 16.766 94.7971 16.6568C94.9178 16.5477 95.1705 16.4902 95.5497 16.4902H99.9788C101.897 16.4902 103.288 16.8809 104.149 17.6564C105.005 18.4377 105.436 19.69 105.436 21.4191V22.1832C105.436 25.3715 103.615 26.9627 99.9788 26.9627H98.1462V26.9742ZM98.1462 23.941H99.6973C100.438 23.941 100.984 23.7917 101.323 23.493C101.662 23.1942 101.834 22.7232 101.834 22.0855V21.5398C101.834 20.8389 101.668 20.3334 101.335 20.0117C101.001 19.69 100.456 19.5292 99.6973 19.5292H98.1462V23.941Z" fill="#121212"/>
<path d="M120.414 31.2119C120.414 31.5451 120.351 31.7692 120.23 31.8783C120.109 31.9875 119.856 32.0449 119.477 32.0449H117.777C117.398 32.0449 117.145 31.9932 117.024 31.8783C116.904 31.7692 116.841 31.5451 116.841 31.2119V25.5362H112.038V31.2119C112.038 31.5451 111.975 31.7692 111.854 31.8783C111.728 31.9875 111.481 32.0449 111.102 32.0449H109.401C109.022 32.0449 108.769 31.9932 108.649 31.8783C108.522 31.7692 108.465 31.5451 108.465 31.2119V17.3271C108.465 16.9939 108.528 16.7699 108.649 16.6607C108.769 16.5516 109.022 16.4941 109.401 16.4941H111.102C111.481 16.4941 111.734 16.5458 111.854 16.6607C111.975 16.7699 112.038 16.9939 112.038 17.3271V22.4341H116.841V17.3271C116.841 16.9939 116.904 16.7699 117.024 16.6607C117.145 16.5516 117.398 16.4941 117.777 16.4941H119.477C119.856 16.4941 120.109 16.5458 120.23 16.6607C120.351 16.7699 120.414 16.9939 120.414 17.3271V31.2119Z" fill="#121212"/>
<path d="M129.949 16.1504C131.287 16.1504 132.425 16.4089 133.355 16.9259C134.286 17.4429 134.987 18.1783 135.452 19.1434C135.642 19.5053 135.785 19.9706 135.889 20.5393C135.992 21.108 136.044 21.8146 136.044 22.6591V25.6693C136.044 26.3414 135.998 26.9733 135.9 27.5708C135.803 28.1682 135.67 28.668 135.498 29.0759C135.044 30.1558 134.349 30.9773 133.401 31.5403C132.453 32.109 131.304 32.3905 129.954 32.3905C128.604 32.3905 127.496 32.1378 126.559 31.6265C125.623 31.1152 124.916 30.3741 124.451 29.3976C124.06 28.6105 123.859 27.4386 123.859 25.8818V22.8716C123.859 22.1995 123.905 21.5676 124.003 20.9702C124.095 20.3727 124.233 19.8729 124.405 19.4651C124.859 18.3851 125.554 17.5636 126.502 17.0006C127.45 16.4319 128.599 16.1504 129.949 16.1504ZM129.949 19.2065C129.03 19.2065 128.392 19.4536 128.03 19.9476C127.668 20.4416 127.484 21.3148 127.484 22.5672V25.9737C127.484 27.2088 127.668 28.082 128.03 28.5818C128.392 29.0816 129.035 29.3344 129.949 29.3344C130.862 29.3344 131.506 29.0816 131.867 28.5818C132.229 28.082 132.413 27.2088 132.413 25.9737V22.5672C132.413 21.3148 132.229 20.4416 131.867 19.9476C131.506 19.4536 130.862 19.2065 129.949 19.2065Z" fill="#121212"/>
<path d="M149.425 31.0816C149.425 31.4723 149.373 31.7308 149.27 31.8572C149.166 31.9836 148.948 32.041 148.615 32.041H140.429C140.049 32.041 139.797 31.9893 139.676 31.8744C139.55 31.7653 139.492 31.5412 139.492 31.208V17.3232C139.492 16.99 139.555 16.766 139.676 16.6568C139.797 16.5477 140.049 16.4902 140.429 16.4902H148.529C148.862 16.4902 149.08 16.5534 149.183 16.6741C149.287 16.7947 149.339 17.059 149.339 17.4496V18.6732C149.339 19.0638 149.287 19.3223 149.183 19.4487C149.08 19.5751 148.862 19.6326 148.529 19.6326H143.071V22.5164H147.96C148.293 22.5164 148.511 22.5796 148.615 22.7002C148.718 22.8266 148.77 23.0851 148.77 23.4757V24.6132C148.77 25.0038 148.718 25.2623 148.615 25.3887C148.511 25.5093 148.293 25.5725 147.96 25.5725H143.071V28.8929H148.615C148.948 28.8929 149.166 28.9561 149.27 29.0768C149.373 29.1974 149.425 29.4617 149.425 29.8523V31.0759V31.0816Z" fill="#121212"/>
<path d="M156.168 22.9586V31.2079C156.168 31.5411 156.105 31.7651 155.984 31.8743C155.858 31.9834 155.611 32.0409 155.231 32.0409H153.749C153.37 32.0409 153.123 31.9892 153.008 31.8743C152.893 31.7651 152.836 31.5411 152.836 31.2079V17.3231C152.836 16.9899 152.899 16.7659 153.02 16.6567C153.14 16.5476 153.393 16.4901 153.772 16.4901H155.128C155.547 16.4901 155.846 16.5361 156.013 16.6337C156.179 16.7314 156.352 16.9497 156.524 17.3001L160.844 25.5494V17.3173C160.844 16.9842 160.907 16.7601 161.028 16.651C161.154 16.5418 161.401 16.4844 161.78 16.4844H163.245C163.624 16.4844 163.877 16.5361 163.998 16.651C164.118 16.7601 164.182 16.9842 164.182 17.3173V31.2022C164.182 31.5354 164.118 31.7594 163.998 31.8685C163.871 31.9777 163.624 32.0351 163.245 32.0351H161.89C161.47 32.0351 161.171 31.9892 161.005 31.8915C160.838 31.7996 160.666 31.5756 160.494 31.2251L156.174 22.9529L156.168 22.9586Z" fill="#121212"/>
<path d="M171.601 31.2119C171.601 31.5451 171.537 31.7692 171.417 31.8783C171.29 31.9875 171.043 32.0449 170.664 32.0449H168.964C168.585 32.0449 168.332 31.9932 168.211 31.8783C168.085 31.7692 168.027 31.5451 168.027 31.2119V17.3271C168.027 16.9939 168.091 16.7699 168.211 16.6607C168.332 16.5516 168.585 16.4941 168.964 16.4941H170.664C171.043 16.4941 171.296 16.5458 171.417 16.6607C171.537 16.7699 171.601 16.9939 171.601 17.3271V31.2119Z" fill="#121212"/>
<path d="M177.385 16.496C177.718 16.496 177.96 16.5477 178.103 16.6626C178.247 16.7717 178.431 17.0245 178.649 17.4151L180.614 20.994L182.665 17.4151C182.912 16.9958 183.107 16.7373 183.245 16.6396C183.383 16.5419 183.612 16.496 183.934 16.496H186.226C186.646 16.496 186.858 16.6683 186.858 17.0187C186.858 17.1336 186.806 17.2715 186.703 17.4324L182.555 23.8262L186.898 31.0931C186.927 31.1391 186.962 31.2023 186.996 31.2885C187.03 31.3746 187.048 31.4493 187.048 31.5068C187.048 31.8572 186.835 32.0295 186.416 32.0295H184.037C183.687 32.0295 183.446 31.9778 183.308 31.8744C183.17 31.771 182.992 31.5182 182.774 31.1104L180.505 26.8536L178.368 31.1104C178.178 31.501 178.006 31.7538 177.845 31.8629C177.684 31.9721 177.437 32.0295 177.104 32.0295H174.812C174.386 32.0295 174.18 31.8572 174.18 31.5068C174.18 31.3631 174.231 31.2253 174.335 31.0931L178.655 23.8032L174.53 17.4266C174.427 17.2543 174.375 17.1164 174.375 17.013C174.375 16.6626 174.588 16.4902 175.007 16.4902H177.385V16.496Z" fill="#121212"/>
<path d="M34.1405 9.85954C30.3662 6.07956 25.3397 4 19.9971 4C14.6546 4 9.63378 6.07956 5.85954 9.85954C2.07956 13.6338 0 18.6603 0 24.0029C0 29.3454 2.07956 34.3662 5.85954 38.1462C9.63952 41.9262 14.6603 44.0057 20.0029 44.0057C25.3454 44.0057 30.3662 41.9262 34.1462 38.1462C37.9262 34.3662 40.0057 29.3454 40.0057 24.0029C40.0057 18.6603 37.9262 13.6395 34.1462 9.85954H34.1405ZM19.9971 41.4838C10.3404 41.4838 2.51041 33.6539 2.51041 23.9971C2.51041 14.3404 10.3461 6.51616 19.9971 6.51616C29.6481 6.51616 37.4781 14.3461 37.4781 24.0029C37.4781 33.6596 29.6481 41.4896 19.9971 41.4896V41.4838Z" fill="#121212"/>
<path d="M31.0601 27.2375C31.0601 24.4973 25.5166 19.9016 25.5166 19.9016C24.9421 19.4535 24.4653 19.0341 24.0804 18.6263C23.3681 17.8795 23.3681 16.9603 23.6381 15.4839C24.0057 13.0597 26.0163 12.3876 26.0163 12.3876L26.2921 12.422C26.4529 10.7389 24.5629 11.2042 24.5629 11.2042L24.0172 12.0199L22.5581 12.0774L23.0234 11.3823L23.7989 11.635L24.2125 11.0146C24.2125 11.0146 23.7817 10.6757 23.4485 10.7331C23.121 10.7963 20.4268 11.2903 20.4268 11.2903C18.8413 11.7269 18.3243 12.761 17.566 14.8693L18.6115 14.2086L17.4223 16.4778L18.4334 15.9205C18.4334 15.9205 17.296 18.1093 14.5787 20.1256C14.5787 20.1256 9.03516 24.4916 9.03516 27.2318C9.03516 27.2318 9.80494 36.4289 13.1253 38.8532C12.3556 37.2849 11.4192 35.5098 11.603 30.466C11.6202 32.2641 11.873 34.5677 14.3317 39.353C14.7453 39.5023 15.159 39.6402 15.5898 39.7608C14.8545 37.3883 14.0158 35.1594 14.1536 29.5698C14.1536 31.0749 14.2973 34.3953 16.5894 40.0079C17.0432 40.1055 17.1638 40.1342 17.6349 40.1917C17.296 39.083 17.0834 37.8479 16.8881 36.4174C17.1064 37.6525 17.6177 38.9394 18.1921 40.2606C18.7896 40.3238 19.3928 40.3583 20.0074 40.3583C20.6566 40.3583 21.2942 40.3181 21.9204 40.2434C22.4662 38.9049 22.92 37.5951 23.144 36.3428C22.943 37.7904 22.8281 39.06 22.4719 40.1859C22.943 40.1228 23.0751 40.071 23.5289 39.9734C25.7463 34.5102 25.9187 31.2588 25.9187 29.633C25.9187 29.61 25.9187 29.5813 25.9187 29.5583C25.9187 29.5583 25.9187 29.61 25.9187 29.633C26.0508 35.1364 25.2466 37.3596 24.5227 39.7206C24.9536 39.5942 25.3787 39.4564 25.798 39.2955C28.251 34.5045 28.4923 32.2009 28.5038 30.466C28.6819 35.4581 27.7627 37.2217 26.9987 38.7842C30.8304 35.4868 31.0659 27.2203 31.0659 27.2203L31.0601 27.2375Z" fill="#E2241A"/>
<path d="M35.0606 20.6821C33.544 13.7598 27.3743 8.57812 19.9981 8.57812C12.622 8.57812 6.45799 13.7598 4.94141 20.6821H4.99885C5.06204 20.4121 6.42927 18.9013 6.42927 18.9013C5.01034 21.9632 4.90694 27.3287 5.51013 29.2818V29.2646C5.33204 28.265 6.69927 24.7723 6.69927 24.7723C6.05587 27.9319 7.34267 33.7512 9.87606 35.7733C8.10096 31.3097 8.24458 27.3919 8.25607 27.1965V27.231C8.25607 24.1978 13.5009 19.9813 14.0984 19.5102L14.1156 19.4987C14.7016 19.0679 15.2014 18.6255 15.6379 18.2004C15.7988 17.8959 16.3273 16.8791 16.5571 16.4483C16.3675 16.5689 16.0573 16.7643 16.0573 16.7643L16.8386 14.6043C17.5969 12.5017 18.2403 11.0828 20.2279 10.5371L20.2624 10.5256L23.3185 9.95684C23.9332 9.84195 24.5077 10.2383 24.6915 10.3819C25.1281 10.3245 25.9266 10.313 26.5068 10.8128C26.817 11.0828 27.1675 11.5883 27.0813 12.496L27.0009 13.306C27.0009 13.306 26.1564 13.1968 26.1334 13.1911C25.737 13.3807 24.6628 14.0298 24.4215 15.6038V15.6268C24.3124 16.1898 24.2607 16.6206 24.2607 16.9653C24.2607 17.4881 24.387 17.8098 24.6513 18.0855C25.0132 18.4647 25.4613 18.8553 26.007 19.2862L26.0243 19.3034C26.6102 19.7859 31.6425 24.0542 31.8321 27.0702C31.8493 27.1678 31.8608 27.3057 31.8608 27.5125C31.8608 27.6906 31.8551 27.9204 31.8436 28.2248C31.8206 28.7935 31.7517 29.7069 31.5679 30.8099C31.3611 32.0565 30.9819 33.8546 30.2811 35.6527C32.8834 33.1595 33.9519 27.9146 33.3142 24.7838C33.3142 24.7838 34.6815 28.2765 34.5034 29.2761V29.2933C35.3421 27.2712 34.6125 20.9981 33.6474 18.9128C33.6474 18.9128 35.0032 20.4121 35.0778 20.6993L35.0606 20.6821Z" fill="#E2241A"/>
</g>
<defs>
<clipPath id="clip0_18613_41139">
<rect fill="white" height="40" transform="translate(0 4)" width="195.083"/>
</clipPath>
</defs>
</svg>